<svg xmlns="http://www.w3.org/2000/svg" viewBox="0 0 1600 560" width="1600" height="560" fill="#fff">
<path fill-opacity="0.3" d="M-8 125.8C-5.3 124.3 -2.8 122 0 121.2C2.6 120.5 3.7 117.2 8 121.2C19.7 132 36 154.5 48 165.7C54 171.4 57.4 170.6 62 171.7C66.1 172.6 68.5 172.9 74 171.6C83.2 169.4 95.9 165.6 106 161C115.9 156.5 123.2 149.9 134 144.3C147.2 137.4 161.2 132 178 123.3C199.8 112 229.5 89.6 250 84.2C262.2 81 263.2 89.3 276 97.5C299.9 112.7 335.2 138.6 360 154.2C376.6 164.6 387.8 169.8 400 175.4C409.1 179.6 416.6 181.9 424 183.6C429.9 184.9 433.4 185.5 440 184.5C449.4 183.1 462.3 175.8 472 176.2C480.3 176.6 487.2 184.8 494 187C499.2 188.6 500.1 190 508 187.7C524.8 182.8 549.8 172.9 568 165.5C583.1 159.4 595.1 152 608 147.3C619.1 143.1 629.8 139.7 640 138.9C649.1 138.1 652.3 138.2 666 142.6C693 151.3 734.6 169.5 762 178.1C777.9 183 786.3 183.1 796 183.1C802.3 183.1 805.7 180.6 810 178.2C814.4 175.8 816.4 175 822 168.7C833.1 156.3 848.8 134.1 860 122.3C864.1 117.9 864.5 120.4 868 120.4C873.2 120.4 880.3 122.3 886 122.2C891 122 895.5 119.8 900 119.5C904.2 119.3 907.4 121.2 912 120.4C918.1 119.5 925.6 119 932 114.5C940.3 108.7 949.1 97.8 956 89.6C961.8 82.6 964.7 77.8 970 69C977.4 56.7 986.5 37.1 994 26.1C997.2 21.4 997.7 21.3 1002 21.8C1009.7 22.7 1021.7 24.4 1030 30.4C1039.7 37.3 1047.2 52.4 1056 60.5C1063.2 67.1 1070.9 70.5 1078 74.5C1084.2 78 1088.9 80 1096 82.8C1104.9 86.3 1117.5 90.8 1126 93.3C1130.8 94.8 1132.3 94.9 1136 94.9C1140.3 94.9 1145 94.5 1150 93.5C1155.7 92.3 1162.9 89.2 1168 88.4C1170.9 87.9 1171.6 88.7 1174 89.5C1177.6 90.7 1181.8 91.3 1186 94.5C1191.8 98.8 1195.6 105.6 1204 112C1216.3 121.4 1235.2 135.3 1248 142C1254.6 145.5 1257.4 143.6 1262 142.8C1266.7 142.1 1270.9 136.9 1276 137.5C1282.2 138.3 1289.9 144.9 1296 147.2C1300.5 148.9 1303.5 149.4 1308 149.5C1313.5 149.7 1319.3 150.8 1326 148.2C1335.3 144.8 1347.3 137.5 1356 131.7C1363.3 126.8 1366.8 124.1 1374 116.2C1385.4 103.8 1401.2 83 1412 70.8C1416.5 65.6 1417.5 65.3 1420 64C1421.5 63.1 1422.4 63.1 1424 64.2C1427 66.4 1430.2 67.9 1434 73.9C1440.9 84.9 1448.5 104 1456 115.2C1461.2 122.9 1463.4 126 1472 130.4C1485.4 137.3 1506.3 145.1 1522 149C1534.9 152.2 1548 146 1558 151.7C1568.7 157.8 1576.3 175.8 1584 184.5C1588.3 189.3 1590.2 190 1594 192.2C1598.2 194.6 1603.3 196.4 1608 198.5L1608 560L-8 560Z"/>
<path fill-opacity="0.4" d="M-8 210.1C-4 208.5 -2.8 209.5 4 205.5C19.2 196.4 42.6 179.6 58 170.7C65.9 166.1 67.2 163.2 74 164.9C84.5 167.6 99.2 178.8 110 183.8C117.8 187.4 122.9 189.4 130 190.9C137.6 192.5 146.2 193.7 154 193C161.6 192.4 169.7 187.7 176 186.8C179.7 186.2 180.8 187.4 184 188.6C188.8 190.5 194.7 192.1 200 196.1C206.7 201.1 213.8 211.2 220 215.7C223.8 218.5 226.7 218.9 230 217.8C234 216.4 237.8 213.5 242 208.1C248.5 199.5 255.4 184.3 262 175.9C266.1 170.6 270.5 169 274 167C275.8 166 275.9 165.9 278 166.7C282.5 168.4 289.2 172.9 294 174.7C297.2 175.8 298.3 176.3 302 175.3C308.3 173.5 316.9 166.3 324 166.4C330.9 166.4 338 174.1 344 175.7C348 176.8 350.6 175.4 354 174.4C357.9 173.3 361 172.5 366 169.1C374.3 163.5 382.7 157.5 394 147.5C410.7 132.8 431.1 97.3 450 95.1C467.7 93.1 486.6 121.1 504 134.9C521.2 148.6 536.8 165.3 554 177.7C570.1 189.3 589.8 199.7 604 206.8C611.1 210.4 613.7 209.8 618 209.8C621.7 209.8 624.8 208.4 628 206.7C631.5 204.9 634 203.5 638 199.4C644.6 192.6 653.3 180.7 660 174.1C664 170.3 666.7 169.4 670 168.2C672.7 167.2 675 165.1 678 167.6C683.7 172.4 689.6 184 696 190.3C701.6 195.7 708 197.2 714 202.8C721.4 209.6 729 221 736 227.5C741 232.2 745 234.9 750 236.4C755 237.8 757.7 239 766 236.4C782.4 231.2 807.4 218.6 824 213.1C833.4 210 837.9 210.4 844 210.6C849.2 210.7 852.8 212.3 858 214.2C864.8 216.8 869.4 218 880 224.1C899.4 235.1 928.2 255 948 265.5C959.6 271.7 966.6 272.8 974 274.1C978.6 274.9 980.9 273.5 984 271.6C987.6 269.5 990.1 268.4 994 262.2C1001.5 250.1 1010.9 228.9 1018 216.5C1021.5 210.4 1022.7 208.9 1026 206.8C1029.3 204.7 1033.4 202.1 1038 203.8C1044.7 206.2 1053.6 215.4 1060 219.1C1063.6 221.1 1065.3 220.9 1068 221C1070.7 221 1072.9 221.2 1076 219.3C1080.9 216.3 1086.5 212.8 1092 206.3C1099.8 197 1106.7 179.2 1116 171.9C1123.4 166.2 1134.4 169.1 1142 167.2C1147.7 165.7 1148 166.8 1156 161.9C1174 150.7 1199.4 123.5 1220 118.8C1236.8 115 1250.6 134.6 1268 136.4C1287.2 138.5 1313.4 130.9 1330 130.7C1335.4 130.7 1331.7 130.8 1334 135.9C1341 151.3 1350.5 177.2 1358 192.3C1361.8 199.9 1364.2 201.3 1368 204.1C1371.5 206.7 1376.1 208.2 1380 208.7C1383.5 209.1 1386 208.5 1390 206.8C1396 204.4 1403.3 198.5 1410 196.4C1416 194.5 1422.3 197.3 1428 194.9C1434.3 192.2 1439.7 182.8 1446 181.3C1451.7 179.9 1458 186.4 1464 186.2C1470 186 1476.5 179.3 1482 180C1487.2 180.6 1491.5 187.5 1496 190.2C1499.5 192.3 1502.6 193.5 1506 194.5C1509.3 195.5 1512.5 196.2 1516 196.1C1519.8 196.1 1523 196.2 1528 194.4C1535.7 191.6 1546.5 186.9 1554 182.3C1560.5 178.3 1565 172.2 1570 168.5C1573.7 165.7 1576.1 164.6 1580 162.8C1584.8 160.5 1590.9 157.7 1596 156.3C1600.3 155 1604 155.2 1608 154.7L1608 560L-8 560Z"/>
<path fill-opacity="0.71" d="M-8 282.9C-0.7 278.9 7.3 272 14 270.9C19.3 270.1 23.2 275.7 28 277.3C32.6 278.8 36.8 280.3 42 280.3C48.2 280.2 55.6 279 62 277.1C68.3 275.1 73.7 272.2 80 268.5C87.7 263.9 94.2 258.1 104 252.2C116.9 244.4 135.1 234 148 227.3C156.5 222.8 161.9 220.5 168 218.5C172.6 217.1 173.8 215.7 180 217.1C191.8 219.9 210.3 227.7 222 231.1C227 232.5 226.3 232 230 231.4C236.3 230.5 245.9 227.4 252 226.8C255.2 226.4 255.9 226.7 258 228.4C261.2 230.9 263.8 233.3 268 239.1C275.2 249.2 284 265.7 292 275.9C298 283.6 302.5 287.3 310 292.8C319.2 299.6 332.5 307.2 342 312.5C348.5 316.2 351.7 317.9 358 319.6C365.7 321.8 376.3 324.1 384 324.2C389.7 324.3 392.9 322.4 398 320.4C404.3 317.8 409.1 312.6 418 310.4C430.5 307.4 443.1 309.8 462 304.7C491.1 296.8 534.1 279.8 562 271.3C571.4 268.5 569.2 270.2 574 270.6C580.5 271.2 589 274.4 596 274.5C602.3 274.6 608.8 273.1 614 271.4C618.2 270 620.9 268.1 624 265.1C627.6 261.6 630.3 259.8 634 252.1C641 237.4 649.3 212.4 656 197.7C658.7 191.8 659.4 186.3 662 190.4C668.1 200.2 676 226 682 239.5C685.3 246.9 686.8 249.5 690 253.3C692.8 256.8 695.6 259.5 700 261.2C705.6 263.4 714.1 259.5 720 265.2C728.8 273.7 736.6 293.7 744 303.7C747.9 309 750.3 309.4 754 311.1C757.7 312.7 761.7 314.1 766 313.9C771 313.6 776.9 312 782 309.5C787.6 306.7 793.6 302.4 798 297.8C802.3 293.3 804.6 288.9 808 282.2C812.6 273.1 817.5 259.1 822 250.3C824.8 244.9 826.4 242.2 830 239.7C833.8 237 838.1 234.6 844 234.7C852.1 234.9 863.8 239.8 872 240.5C877.8 241 880.5 240.9 886 238.3C894.5 234.2 903.4 229.1 914 220.6C928.8 208.7 948.3 187.8 962 177.2C966.3 173.9 964.9 176.5 968 178.7C974.9 183.8 984.8 194.1 992 199C996.1 201.8 998.5 201.6 1002 201.9C1005.8 202.2 1009.4 202.6 1014 200.8C1020.7 198.2 1029.8 191.5 1036 188.7C1038.5 187.6 1037.5 186.8 1040 189.1C1047.5 196.1 1057.9 209 1066 216.7C1071.9 222.3 1076.4 223.2 1082 229C1089.7 237.1 1098.4 250.1 1106 258.6C1111.8 265 1116.6 269.7 1122 273.5C1126.6 276.7 1130.2 278.8 1136 279.6C1143.5 280.6 1154.1 276.3 1162 278.9C1170.1 281.7 1177.3 291.4 1184 295.9C1188.6 299.1 1192.1 300.7 1196 302C1199.4 303.2 1202.2 303.7 1206 303.5C1210.8 303.2 1211.7 304.8 1222 300.5C1247.7 289.8 1287.5 269.4 1314 258.4C1330.2 251.7 1337.6 246.6 1350 247.4C1363.6 248.4 1375.5 255.8 1392 263.8C1414.8 274.8 1442.8 292.1 1468 304.5C1492.1 316.3 1518.3 327.5 1540 336.5C1556.3 343.2 1569.2 347.3 1582 351.4C1591.9 354.5 1599.3 355.8 1608 358L1608 560L-8 560Z"/>
</svg>
